<svg width="65" height="64" viewBox="0 0 65 64" fill="none" xmlns="http://www.w3.org/2000/svg">
<path d="M38.4357 9.63374C36.6618 3.61541 28.1373 3.61542 26.3634 9.63374L26.048 10.7036C25.5198 12.4958 23.4727 13.3438 21.8319 12.45L20.8524 11.9165C15.3425 8.9152 9.31474 14.943 12.316 20.4529L12.8495 21.4324C13.7433 23.0732 12.8954 25.1203 11.1032 25.6485L10.0333 25.9639C4.01495 27.7377 4.01495 36.2623 10.0333 38.0361L11.1032 38.3515C12.8954 38.8797 13.7433 40.9268 12.8495 42.5676L12.316 43.5471C9.31474 49.057 15.3425 55.0848 20.8524 52.0835L21.8319 51.55C23.4727 50.6562 25.5198 51.5042 26.048 53.2964L26.3634 54.3663C28.1373 60.3846 36.6618 60.3846 38.4357 54.3663L38.751 53.2964C39.2793 51.5042 41.3263 50.6562 42.9672 51.55L43.9467 52.0835C49.4566 55.0848 55.4843 49.0571 52.4831 43.5471L51.9495 42.5676C51.0558 40.9268 51.9037 38.8797 53.6959 38.3515L54.7658 38.0361C60.7841 36.2623 60.7841 27.7377 54.7658 25.9639L53.6959 25.6485C51.9037 25.1203 51.0558 23.0732 51.9495 21.4324L52.4831 20.4529C55.4843 14.9429 49.4566 8.91521 43.9467 11.9165L42.9672 12.45C41.3263 13.3438 39.2793 12.4958 38.751 10.7036L38.4357 9.63374ZM29.5863 10.5837C30.4131 7.77876 34.386 7.77877 35.2128 10.5837L35.5281 11.6536C36.6615 15.499 41.0538 17.3184 44.5744 15.4007L45.5539 14.8671C48.1219 13.4683 50.9312 16.2777 49.5324 18.8456L48.9989 19.8251C47.0812 23.3457 48.9005 27.738 52.746 28.8714L53.8158 29.1868C56.6208 30.0135 56.6208 33.9865 53.8158 34.8132L52.746 35.1286C48.9005 36.262 47.0812 40.6543 48.9989 44.1749L49.5324 45.1544C50.9312 47.7223 48.1219 50.5316 45.5539 49.1329L44.5744 48.5993C41.0538 46.6817 36.6615 48.501 35.5281 52.3464L35.2128 53.4163C34.386 56.2212 30.413 56.2212 29.5863 53.4163L29.271 52.3464C28.1375 48.501 23.7453 46.6816 20.2247 48.5993L19.2452 49.1329C16.6772 50.5316 13.8679 47.7223 15.2667 45.1544L15.8002 44.1749C17.7179 40.6543 15.8986 36.262 12.0531 35.1286L10.9832 34.8132C8.1783 33.9865 8.1783 30.0135 10.9832 29.1868L12.0531 28.8714C15.8986 27.738 17.7179 23.3457 15.8002 19.8251L15.2667 18.8456C13.8679 16.2777 16.6772 13.4684 19.2452 14.8671L20.2247 15.4007C23.7453 17.3183 28.1375 15.499 29.271 11.6536L29.5863 10.5837Z" fill="#2462A8"/>
<path d="M39.8262 31.872C39.8262 34.2716 38.7082 36.4102 36.9647 37.7951L34.7862 32.712L39.7574 30.8478C39.8028 31.1827 39.8262 31.5246 39.8262 31.872Z" fill="#F05E00"/>
<path d="M45.712 31.872C45.712 39.2947 39.6947 45.312 32.272 45.312C29.8888 45.312 27.6505 44.6917 25.7097 43.6038C25.5726 43.5269 25.437 43.4477 25.3029 43.3663C23.3191 42.1609 21.6721 40.4564 20.5362 38.427C19.4508 36.4879 18.832 34.2522 18.832 31.872C18.832 24.4493 24.8493 18.432 32.272 18.432C39.6947 18.432 45.712 24.4493 45.712 31.872ZM44.032 31.872C44.032 25.3771 38.7669 20.112 32.272 20.112C25.7772 20.112 20.512 25.3771 20.512 31.872C20.512 33.842 20.9964 35.6989 21.8526 37.33L25.1929 34.5464C24.8784 33.715 24.7062 32.8136 24.7062 31.872C24.7062 27.6967 28.0909 24.312 32.2662 24.312C34.4803 24.312 36.4721 25.2638 37.8548 26.7806L31.4262 29.352L33.1062 33.552L35.3461 38.7783C34.4054 39.1984 33.3631 39.432 32.2662 39.432C31.3246 39.432 30.4232 39.2599 29.5918 38.9453L26.8066 42.2875C28.4395 43.1461 30.299 43.632 32.272 43.632C38.7669 43.632 44.032 38.3669 44.032 31.872ZM30.0957 32.105C30.1952 31.9557 30.1889 31.7597 30.08 31.6171C29.9711 31.4745 29.7836 31.4168 29.6134 31.4736L27.0934 32.3136L27.359 33.1105L28.7177 32.6575L27.7168 34.159C27.6172 34.3083 27.6235 34.5044 27.7324 34.6469C27.8414 34.7895 28.0288 34.8472 28.199 34.7905L29.5577 34.3375L28.5568 35.839C28.4572 35.9883 28.4635 36.1844 28.5724 36.3269C28.6814 36.4695 28.8688 36.5272 29.039 36.4705L31.559 35.6305L31.2934 34.8336L29.9347 35.2865L30.9357 33.785C31.0352 33.6357 31.0289 33.4397 30.92 33.2971C30.8111 33.1545 30.6236 33.0968 30.4534 33.1536L29.0947 33.6065L30.0957 32.105Z" fill="#F05E00"/>
</svg>
