<svg width="65" height="64" viewBox="0 0 65 64" fill="none" xmlns="http://www.w3.org/2000/svg">
<path d="M42.7741 17.9302C44.036 18.2496 45.1733 18.6546 46.0383 19.1659C46.8054 19.6193 47.9197 20.4954 47.9197 21.92C47.9197 22.0747 47.9066 22.2229 47.8822 22.3648L44.6522 52.8329C44.5338 53.9582 44.0143 55.1749 42.8899 55.9583C41.2507 57.1003 37.8712 58.88 32.7769 58.88C27.6827 58.88 24.3032 57.1003 22.6639 55.9583C21.5396 55.1749 21.0201 53.9582 20.9016 52.8329L17.7172 22.3648C17.6928 22.2229 17.6797 22.0747 17.6797 21.92C17.6797 20.4954 18.794 19.6193 19.561 19.1659C20.4406 18.646 21.6015 18.2361 22.8887 17.9143C25.489 17.2642 28.9923 16.88 32.7997 16.88C35.1931 16.88 37.4664 17.0318 39.4708 17.3061L42.7741 17.9302ZM38.7392 20.5984C36.9809 20.3716 34.9616 20.24 32.7997 20.24C29.1843 20.24 25.9676 20.608 23.7036 21.174C22.7418 21.4144 22.0183 21.6745 21.5265 21.92C22.0183 22.1655 22.7418 22.4256 23.7036 22.666C25.9676 23.232 29.1843 23.6 32.7997 23.6C34.7182 23.6 36.5244 23.4964 38.1356 23.3146L38.7392 20.5984ZM39.7201 26.499C37.6558 26.7953 35.2929 26.96 32.7997 26.96C28.9924 26.96 25.489 26.5758 22.8887 25.9257C22.3779 25.798 21.8871 25.6565 21.4258 25.4997L24.2432 52.4811C24.2859 52.8866 24.446 53.1048 24.5846 53.2014C25.7854 54.038 28.5077 55.52 32.7769 55.52C37.0462 55.52 39.7684 54.038 40.9692 53.2014C41.1078 53.1048 41.268 52.8866 41.3107 52.4811L44.1736 25.4997C43.7123 25.6565 43.2214 25.798 42.7107 25.9257C41.8351 26.1446 40.8571 26.3334 39.7996 26.4875C39.7733 26.4919 39.7467 26.4958 39.7201 26.499ZM20.9304 21.5312C20.9304 21.5312 20.9377 21.5376 20.9471 21.5512C20.9342 21.5381 20.9304 21.5312 20.9304 21.5312ZM44.669 21.5312C44.669 21.5312 44.6652 21.5381 44.6522 21.5512C44.6616 21.5376 44.669 21.5312 44.669 21.5312ZM44.0729 21.92C43.6068 21.6874 42.9326 21.4416 42.0448 21.2119L41.7116 22.7111C41.7737 22.6962 41.8351 22.6812 41.8957 22.666C42.8575 22.4256 43.5811 22.1655 44.0729 21.92Z" fill="#2462A8"/>
<path d="M52.6288 6.24364C52.9733 7.10512 52.5543 8.08283 51.6928 8.42742L44.1165 11.458L42.7742 17.9302L41.7599 22.784L38.1357 23.3145L39.471 17.3061L41.0289 9.86314C41.1493 9.32129 41.5296 8.87389 42.045 8.66774L50.445 5.30774C51.3065 4.96315 52.2842 5.38217 52.6288 6.24364Z" fill="#F05E00"/>
</svg>
