<svg width="65" height="64" viewBox="0 0 65 64" fill="none" xmlns="http://www.w3.org/2000/svg">
<path d="M12.8393 33.28C13.6788 33.28 14.3593 33.96 14.3593 34.7989V53.0261H17.3993V37.8368C17.3993 36.159 18.7604 34.7989 20.4393 34.7989H29.5593C31.2382 34.7989 32.5993 36.159 32.5993 37.8368V53.0261H50.8393V34.7989C50.8393 33.96 51.5198 33.28 52.3593 33.28C53.1988 33.28 53.8793 33.96 53.8793 34.7989V53.0261H55.3993C56.2388 53.0261 56.9193 53.7062 56.9193 54.5451C56.9193 55.3839 56.2388 56.064 55.3993 56.064H9.7993C8.95982 56.064 8.2793 55.3839 8.2793 54.5451C8.2793 53.7062 8.95982 53.0261 9.7993 53.0261H11.3193V34.7989C11.3193 33.96 11.9998 33.28 12.8393 33.28ZM20.4393 53.0261H29.5593V37.8368H20.4393V53.0261Z" fill="#2462A8"/>
<path d="M17.3103 11.5569C17.8878 10.8835 18.7309 10.496 19.6184 10.496H45.5802C46.4676 10.496 47.3108 10.8835 47.8883 11.5569L55.8215 20.8057C56.5299 21.6316 56.9193 22.6835 56.9193 23.7712V24.5461C56.9193 28.5308 53.6868 31.7611 49.6993 31.7611C47.3824 31.7611 45.3204 30.6705 43.9993 28.9751C42.6782 30.6705 40.6162 31.7611 38.2993 31.7611C35.9824 31.7611 33.9204 30.6705 32.5993 28.9751C31.2782 30.6705 29.2162 31.7611 26.8993 31.7611C24.5824 31.7611 22.5204 30.6705 21.1993 28.9751C19.8782 30.6705 17.8162 31.7611 15.4993 31.7611C11.5118 31.7611 8.2793 28.5308 8.2793 24.5461V23.7712C8.2793 22.6835 8.66868 21.6316 9.37709 20.8057L17.3103 11.5569Z" stroke="#F05E00" stroke-width="3" stroke-linecap="round"/>
<path fill-rule="evenodd" clip-rule="evenodd" d="M38.6796 34.7989C37.0007 34.7989 35.6396 36.159 35.6396 37.8368V46.9504C35.6396 48.6282 37.0007 49.9883 38.6796 49.9883H44.7596C46.4386 49.9883 47.7996 48.6282 47.7996 46.9504V37.8368C47.7996 36.159 46.4386 34.7989 44.7596 34.7989H38.6796ZM45.3682 37.3278H38.0713V47.4594H45.3682V37.3278Z" fill="#F05E00"/>
</svg>
