<svg width="64" height="64" viewBox="0 0 64 64" fill="none" xmlns="http://www.w3.org/2000/svg">
<path d="M13.5201 8.448C12.5923 8.448 11.8401 9.19682 11.8401 10.1205V21.8283H10.1601C7.3766 21.8283 5.12012 24.0747 5.12012 26.8459V50.2613C5.12012 52.446 6.52259 54.3046 8.48012 54.9934V56.1152C8.48012 57.5008 9.60836 58.624 11.0001 58.624C12.3919 58.624 13.5201 57.5008 13.5201 56.1152V55.2789H18.5601V51.9339H10.1601C9.23228 51.9339 8.48012 51.185 8.48012 50.2613V26.8459C8.48012 25.9222 9.23228 25.1733 10.1601 25.1733H26.9601C27.888 25.1733 28.6401 25.9222 28.6401 26.8459V28.5184H32.0001V26.8459C32.0001 24.0747 29.7436 21.8283 26.9601 21.8283H25.2801V10.1205C25.2801 9.19682 24.528 8.448 23.6001 8.448H13.5201ZM21.9201 21.8283H15.2001V11.7931H21.9201V21.8283Z" fill="#2462A8"/>
<path d="M15.2001 30.1909C15.2001 29.2672 14.448 28.5184 13.5201 28.5184C12.5923 28.5184 11.8401 29.2672 11.8401 30.1909V46.9163C11.8401 47.84 12.5923 48.5888 13.5201 48.5888C14.448 48.5888 15.2001 47.84 15.2001 46.9163V30.1909Z" fill="#2462A8"/>
<path d="M42.0799 25.1733C44.8634 25.1733 47.1199 27.4198 47.1199 30.1909V31.8635H53.8399C56.6234 31.8635 58.8799 34.1099 58.8799 36.8811V53.6064C58.8799 56.3775 56.6234 58.624 53.8399 58.624L26.9599 58.624C24.1764 58.624 21.9199 56.3775 21.9199 53.6064V36.8811C21.9199 34.1099 24.1764 31.8635 26.9599 31.8635H33.6799V30.1909C33.6799 27.4198 35.9364 25.1733 38.7199 25.1733H42.0799ZM37.0399 30.1909V31.8635H43.7599V30.1909C43.7599 29.2672 43.0078 28.5184 42.0799 28.5184H38.7199C37.7921 28.5184 37.0399 29.2672 37.0399 30.1909ZM25.2799 36.8811V53.6064C25.2799 54.5301 26.0321 55.2789 26.9599 55.2789L28.6399 55.2789V35.2085H26.9599C26.0321 35.2085 25.2799 35.9574 25.2799 36.8811ZM48.7999 55.2789V35.2085H31.9999V55.2789L48.7999 55.2789ZM53.8399 55.2789C54.7678 55.2789 55.5199 54.5301 55.5199 53.6064V36.8811C55.5199 35.9574 54.7678 35.2085 53.8399 35.2085H52.1599V55.2789L53.8399 55.2789Z" fill="#F05E00"/>
</svg>
