<svg width="65" height="64" viewBox="0 0 65 64" fill="none" xmlns="http://www.w3.org/2000/svg">
<path fill-rule="evenodd" clip-rule="evenodd" d="M42.2795 55.52C49.7022 55.52 55.7195 49.5027 55.7195 42.08C55.7195 34.6573 49.7022 28.64 42.2795 28.64C34.8568 28.64 28.8395 34.6573 28.8395 42.08C28.8395 49.5027 34.8568 55.52 42.2795 55.52ZM59.0795 42.08C59.0795 51.3584 51.5579 58.88 42.2795 58.88C33.0011 58.88 25.4795 51.3584 25.4795 42.08C25.4795 32.8016 33.0011 25.28 42.2795 25.28C51.5579 25.28 59.0795 32.8016 59.0795 42.08Z" fill="#F05E00"/>
<path d="M37.7647 36.998C38.6467 36.998 39.3747 37.1053 39.9487 37.32C40.5274 37.5347 40.9567 37.8613 41.2367 38.3C41.5214 38.7387 41.6637 39.2963 41.6637 39.973C41.6637 40.477 41.5704 40.9063 41.3837 41.261C41.197 41.6157 40.952 41.9097 40.6487 42.143C40.3454 42.3763 40.021 42.563 39.6757 42.703L42.5807 47.232H40.6837L38.2127 43.13H36.5677V47.232H34.8877V36.998H37.7647ZM37.6527 38.398H36.5677V41.744H37.7297C38.509 41.744 39.0737 41.5993 39.4237 41.31C39.7784 41.0207 39.9557 40.5937 39.9557 40.029C39.9557 39.4363 39.7667 39.0163 39.3887 38.769C39.0154 38.5217 38.4367 38.398 37.6527 38.398Z" fill="#F05E00"/>
<path d="M47.8517 39.336C48.771 39.336 49.5084 39.672 50.0637 40.344C50.6237 41.016 50.9037 42.0147 50.9037 43.34C50.9037 44.2173 50.773 44.957 50.5117 45.559C50.255 46.1563 49.8934 46.609 49.4267 46.917C48.9647 47.2203 48.4257 47.372 47.8097 47.372C47.4177 47.372 47.077 47.3207 46.7877 47.218C46.4984 47.1153 46.251 46.9823 46.0457 46.819C45.8404 46.651 45.6677 46.469 45.5277 46.273H45.4297C45.453 46.4597 45.474 46.6673 45.4927 46.896C45.516 47.12 45.5277 47.3253 45.5277 47.512V50.669H43.8757V39.483H45.2197L45.4507 40.554H45.5277C45.6724 40.3347 45.8474 40.1317 46.0527 39.945C46.2627 39.7583 46.5147 39.6113 46.8087 39.504C47.1074 39.392 47.455 39.336 47.8517 39.336ZM47.4107 40.68C46.958 40.68 46.594 40.771 46.3187 40.953C46.048 41.1303 45.8497 41.3987 45.7237 41.758C45.6024 42.1173 45.537 42.5677 45.5277 43.109V43.34C45.5277 43.914 45.586 44.4017 45.7027 44.803C45.824 45.1997 46.0224 45.503 46.2977 45.713C46.5777 45.9183 46.9557 46.021 47.4317 46.021C47.833 46.021 48.1644 45.9113 48.4257 45.692C48.6917 45.4727 48.89 45.16 49.0207 44.754C49.1514 44.348 49.2167 43.8697 49.2167 43.319C49.2167 42.4837 49.0674 41.835 48.7687 41.373C48.4747 40.911 48.022 40.68 47.4107 40.68Z" fill="#F05E00"/>
<path d="M8.67934 5.12C6.82366 5.12 5.31934 6.62432 5.31934 8.48V35.36C5.31934 37.2157 6.82366 38.72 8.67934 38.72H22.3981C22.5921 37.5636 22.8845 36.4407 23.2665 35.36H15.3993C15.3993 31.6486 12.3907 28.64 8.67934 28.64V15.2C12.3907 15.2 15.3993 12.1913 15.3993 8.48H48.9993C48.9993 12.1913 52.008 15.2 55.7193 15.2V27.0534C56.9965 28.1964 58.127 29.4999 59.0793 30.9322V8.48C59.0793 6.62432 57.575 5.12 55.7193 5.12H8.67934Z" fill="#2462A8"/>
<path d="M38.9136 22.1997C38.9174 22.1069 38.9193 22.0137 38.9193 21.92C38.9193 18.2086 35.9107 15.2 32.1993 15.2C28.488 15.2 25.4793 18.2086 25.4793 21.92C25.4793 24.2199 26.6347 26.25 28.3968 27.4614C31.2413 24.7593 34.8736 22.8787 38.9136 22.1997Z" fill="#2462A8"/>
</svg>
