<svg width="37" height="40" viewBox="0 0 37 40" fill="none" xmlns="http://www.w3.org/2000/svg">
<path d="M21.3613 24.948V27.2913C21.3613 31.7113 21.3613 33.9197 19.9124 35.293C18.4651 36.6663 16.1327 36.6663 11.4712 36.6663C6.80963 36.6663 4.47721 36.6663 3.02996 35.293C1.58105 33.9213 1.58105 31.7097 1.58105 27.293V19.2563C1.58105 14.8363 1.58105 12.6263 3.02996 11.253C3.9893 10.3447 5.25193 10.093 6.52611 10.0247M11.4712 31.6663H11.486" stroke="white" stroke-width="2.52746" stroke-linecap="round" stroke-linejoin="round"/>
<path d="M21.361 5.83301C17.8879 3.86301 15.7978 3.48301 13.1192 3.33301C12.0527 3.52801 11.7165 3.91801 11.4709 4.99967V14.9997C11.4626 16.523 11.7972 17.093 13.1192 17.4997C16.7077 18.0797 18.4269 18.6047 21.1582 19.903C21.2868 19.9647 21.4384 19.9663 21.5687 19.9097C24.2044 18.7663 25.9071 18.1263 27.8621 17.7547C29.011 17.538 30.4384 17.5213 31.0071 16.4913C31.2082 16.1297 31.2758 15.6613 31.2511 14.9997V4.99967C30.9148 3.92634 30.5538 3.56467 29.6027 3.33301C26.7082 3.49467 24.9577 3.90801 21.361 5.83301ZM21.361 5.83301V19.1663" stroke="white" stroke-width="2.52746" stroke-linecap="round" stroke-linejoin="round"/>
</svg>
