<svg width="40" height="40" viewBox="0 0 40 40" fill="none" xmlns="http://www.w3.org/2000/svg">
<path d="M7.6498 20.8C8.17448 20.8 8.5998 21.2251 8.5998 21.7494V33.1414H10.4998V23.648C10.4998 22.5994 11.3505 21.7494 12.3998 21.7494H18.0998C19.1491 21.7494 19.9998 22.5994 19.9998 23.648V33.1414H31.3998V21.7494C31.3998 21.2251 31.8251 20.8 32.3498 20.8C32.8745 20.8 33.2998 21.2251 33.2998 21.7494V33.1414H34.2498C34.7745 33.1414 35.1998 33.5664 35.1998 34.0907C35.1998 34.615 34.7745 35.04 34.2498 35.04H5.7498C5.22513 35.04 4.7998 34.615 4.7998 34.0907C4.7998 33.5664 5.22513 33.1414 5.7498 33.1414H6.6998V21.7494C6.6998 21.2251 7.12513 20.8 7.6498 20.8ZM12.3998 33.1414H18.0998V23.648H12.3998V33.1414Z" fill="white"/>
<path d="M10.4442 7.22309C10.8051 6.80226 11.3321 6.56006 11.8867 6.56006H28.1129C28.6675 6.56006 29.1945 6.80226 29.5555 7.22309L34.5137 13.0036C34.9564 13.5198 35.1998 14.1772 35.1998 14.8571V15.3414C35.1998 17.8318 33.1795 19.8507 30.6873 19.8507C29.2393 19.8507 27.9505 19.1691 27.1248 18.1095C26.2991 19.1691 25.0104 19.8507 23.5623 19.8507C22.1143 19.8507 20.8255 19.1691 19.9998 18.1095C19.1741 19.1691 17.8854 19.8507 16.4373 19.8507C14.9892 19.8507 13.7005 19.1691 12.8748 18.1095C12.0491 19.1691 10.7604 19.8507 9.3123 19.8507C6.82012 19.8507 4.7998 17.8318 4.7998 15.3414V14.8571C4.7998 14.1772 5.04317 13.5198 5.48592 13.0036L10.4442 7.22309Z" stroke="white" stroke-width="3" stroke-linecap="round"/>
<path fill-rule="evenodd" clip-rule="evenodd" d="M23.8004 21.7493C22.751 21.7493 21.9004 22.5993 21.9004 23.6479V29.3439C21.9004 30.3925 22.751 31.2426 23.8004 31.2426H27.6004C28.6497 31.2426 29.5004 30.3925 29.5004 29.3439V23.6479C29.5004 22.5993 28.6497 21.7493 27.6004 21.7493H23.8004ZM27.9807 23.3298H23.4202V29.6621H27.9807V23.3298Z" fill="white"/>
</svg>
