<svg width="64" height="63" viewBox="0 0 64 63" fill="none" xmlns="http://www.w3.org/2000/svg">
<path d="M31.5472 0.75C33.1577 0.75 34.7021 1.40302 35.8409 2.56539C36.9797 3.72777 37.6194 5.30428 37.6194 6.94813C37.6194 8.59198 36.9797 10.1685 35.8409 11.3309C34.7021 12.4932 33.1577 13.1463 31.5472 13.1463C29.9368 13.1463 28.3923 12.4932 27.2535 11.3309C26.1148 10.1685 25.475 8.59198 25.475 6.94813C25.475 5.30428 26.1148 3.72777 27.2535 2.56539C28.3923 1.40302 29.9368 0.75 31.5472 0.75ZM26.9931 16.2453H36.1014C37.7118 16.2453 39.2563 16.8983 40.395 18.0607C41.5338 19.2231 42.1735 20.7996 42.1735 22.4435V39.4883H37.6194V62.7313H25.475V39.4883H20.9209V22.4435C20.9209 20.7996 21.5606 19.2231 22.6994 18.0607C23.8382 16.8983 25.3826 16.2453 26.9931 16.2453Z" fill="#2A73C6"/>
<path opacity="0.8" d="M54.9132 9.74728C56.2903 9.74728 57.6111 10.3057 58.5849 11.2997C59.5587 12.2937 60.1057 13.6418 60.1057 15.0476C60.1057 16.4533 59.5587 17.8014 58.5849 18.7954C57.6111 19.7894 56.2903 20.3478 54.9132 20.3478C53.536 20.3478 52.2153 19.7894 51.2415 18.7954C50.2677 17.8014 49.7206 16.4533 49.7206 15.0476C49.7206 13.6418 50.2677 12.2937 51.2415 11.2997C52.2153 10.3057 53.536 9.74728 54.9132 9.74728ZM51.0187 22.998H58.8076C60.1847 22.998 61.5055 23.5564 62.4793 24.5504C63.4531 25.5444 64.0002 26.8925 64.0002 28.2982V42.874H60.1057V62.75H49.7206V42.874H45.8262V28.2982C45.8262 26.8925 46.3732 25.5444 47.347 24.5504C48.3208 23.5564 49.6416 22.998 51.0187 22.998Z" fill="#D6DBE0"/>
<path opacity="0.8" d="M9.087 9.72873C10.4642 9.72873 11.7849 10.2871 12.7587 11.2811C13.7325 12.2751 14.2796 13.6233 14.2796 15.029C14.2796 16.4347 13.7325 17.7829 12.7587 18.7769C11.7849 19.7709 10.4642 20.3293 9.087 20.3293C7.70984 20.3293 6.38909 19.7709 5.41529 18.7769C4.4415 17.7829 3.89443 16.4347 3.89443 15.029C3.89443 13.6233 4.4415 12.2751 5.41529 11.2811C6.38909 10.2871 7.70984 9.72873 9.087 9.72873ZM5.19257 22.9794H12.9814C14.3586 22.9794 15.6793 23.5378 16.6531 24.5318C17.6269 25.5258 18.174 26.874 18.174 28.2797V42.8554H14.2796V62.7314H3.89443V42.8554H0V28.2797C0 26.874 0.547072 25.5258 1.52087 24.5318C2.49466 23.5378 3.81541 22.9794 5.19257 22.9794Z" fill="#D6DBE0"/>
</svg>
