<svg width="35" height="40" viewBox="0 0 35 40" fill="none" xmlns="http://www.w3.org/2000/svg">
<path d="M3.40039 4C2.60474 4 1.84168 4.31607 1.27907 4.87868C0.716461 5.44129 0.400391 6.20435 0.400391 7V33C0.400391 33.7956 0.716461 34.5587 1.27907 35.1213C1.84168 35.6839 2.60474 36 3.40039 36H17.4004C18.196 36 18.9591 35.6839 19.5217 35.1213C20.0843 34.5587 20.4004 33.7956 20.4004 33V30C20.4004 29.7348 20.295 29.4804 20.1075 29.2929C19.92 29.1054 19.6656 29 19.4004 29C18.5744 29 18.0464 28.796 17.6884 28.528C17.3244 28.256 17.0417 27.8407 16.8404 27.282C16.4124 26.106 16.4004 24.548 16.4004 23C16.4004 22.8685 16.3744 22.7382 16.3239 22.6167C16.2735 22.4952 16.1996 22.3849 16.1064 22.292L15.5344 21.718L13.1084 19.292C12.1744 18.358 11.9004 17.732 11.8484 17.382C11.8084 17.102 11.8924 16.914 12.0924 16.722C12.5204 16.312 12.8264 16.034 13.1724 15.95C13.3784 15.898 13.8484 15.862 14.6924 16.706L20.6924 22.706C20.8799 22.8938 21.1343 22.9994 21.3997 22.9996C21.5311 22.9996 21.6612 22.9739 21.7826 22.9237C21.9041 22.8735 22.0144 22.7998 22.1074 22.707C22.2004 22.6142 22.2741 22.5039 22.3245 22.3825C22.3749 22.2612 22.4009 22.1311 22.4009 21.9997C22.401 21.8683 22.3753 21.7382 22.3251 21.6168C22.2749 21.4953 22.2012 21.385 22.1084 21.292L20.4004 19.586V13.414L25.5204 18.534C25.7993 18.8125 26.0206 19.1433 26.1715 19.5074C26.3225 19.8715 26.4003 20.2618 26.4004 20.656V35C26.4004 35.2652 26.5057 35.5196 26.6933 35.7071C26.8808 35.8946 27.1352 36 27.4004 36C27.6656 36 27.92 35.8946 28.1075 35.7071C28.295 35.5196 28.4004 35.2652 28.4004 35V20.656C28.4001 19.3305 27.8735 18.0594 26.9364 17.122L20.4004 10.586V7C20.4004 6.20435 20.0843 5.44129 19.5217 4.87868C18.9591 4.31607 18.196 4 17.4004 4H3.40039ZM18.4004 11V17.586L16.1084 15.292C14.9524 14.136 13.8004 13.738 12.6984 14.006C12.4818 14.0592 12.2719 14.1363 12.0724 14.236C11.1784 13.9766 10.2362 13.9288 9.32052 14.0963C8.40481 14.2638 7.54065 14.6422 6.79639 15.2013C6.05213 15.7605 5.44819 16.4852 5.03234 17.318C4.61648 18.1509 4.40013 19.0691 4.40039 20C4.40031 21.1599 4.73642 22.2949 5.36805 23.2678C5.99968 24.2406 6.89974 25.0095 7.95929 25.4814C9.01885 25.9533 10.1925 26.108 11.3381 25.9267C12.4838 25.7454 13.5523 25.236 14.4144 24.46C14.4484 25.616 14.5644 26.88 14.9604 27.966C15.2564 28.78 15.7284 29.558 16.4884 30.126L16.5004 30.138C15.8914 30.3295 15.3593 30.7103 14.9817 31.2251C14.604 31.7398 14.4004 32.3616 14.4004 33V34H6.40039V33C6.40039 32.2044 6.08432 31.4413 5.52171 30.8787C4.9591 30.3161 4.19604 30 3.40039 30H2.40039V10H3.40039C4.19604 10 4.9591 9.68393 5.52171 9.12132C6.08432 8.55871 6.40039 7.79565 6.40039 7V6H14.4004V7C14.4004 7.79565 14.7165 8.55871 15.2791 9.12132C15.8417 9.68393 16.6047 10 17.4004 10H18.4004V11ZM18.4004 33V33.018C18.3957 33.2801 18.2882 33.5298 18.1012 33.7135C17.9142 33.8972 17.6625 34 17.4004 34H16.4004V33C16.4004 32.7348 16.5057 32.4804 16.6933 32.2929C16.8808 32.1054 17.1352 32 17.4004 32H18.4004V33ZM6.40039 20C6.4004 18.9828 6.78798 18.0038 7.48425 17.2622C8.18052 16.5206 9.13318 16.0721 10.1484 16.008C9.90039 16.468 9.77439 17.028 9.87039 17.674C10.0124 18.638 10.6264 19.64 11.6924 20.706L13.5064 22.52C12.9856 23.1617 12.2789 23.6264 11.4833 23.8502C10.6877 24.0739 9.84237 24.0457 9.06345 23.7695C8.28453 23.4933 7.6103 22.9826 7.13344 22.3076C6.65657 21.6326 6.40049 20.8264 6.40039 20ZM4.40039 6V7C4.40039 7.26522 4.29503 7.51957 4.1075 7.70711C3.91996 7.89464 3.66561 8 3.40039 8H2.40039V7C2.40039 6.73478 2.50575 6.48043 2.69328 6.29289C2.88082 6.10536 3.13517 6 3.40039 6H4.40039ZM2.40039 32H3.40039C3.66561 32 3.91996 32.1054 4.1075 32.2929C4.29503 32.4804 4.40039 32.7348 4.40039 33V34H3.40039C3.13517 34 2.88082 33.8946 2.69328 33.7071C2.50575 33.5196 2.40039 33.2652 2.40039 33V32ZM18.4004 8H17.4004C17.1352 8 16.8808 7.89464 16.6933 7.70711C16.5057 7.51957 16.4004 7.26522 16.4004 7V6H17.4004C17.6656 6 17.92 6.10536 18.1075 6.29289C18.295 6.48043 18.4004 6.73478 18.4004 7V8Z" fill="white"/>
</svg>
