<svg width="41" height="40" viewBox="0 0 41 40" fill="none" xmlns="http://www.w3.org/2000/svg">
<path fill-rule="evenodd" clip-rule="evenodd" d="M26.5 34.7C31.1392 34.7 34.9 30.9392 34.9 26.3C34.9 21.6609 31.1392 17.9 26.5 17.9C21.8608 17.9 18.1 21.6609 18.1 26.3C18.1 30.9392 21.8608 34.7 26.5 34.7ZM37 26.3C37 32.099 32.299 36.8 26.5 36.8C20.701 36.8 16 32.099 16 26.3C16 20.5011 20.701 15.8 26.5 15.8C32.299 15.8 37 20.5011 37 26.3Z" fill="white"/>
<path d="M23.678 23.1238C24.2293 23.1238 24.6843 23.1909 25.043 23.325C25.4047 23.4592 25.673 23.6634 25.848 23.9375C26.0259 24.2117 26.1149 24.5602 26.1149 24.9832C26.1149 25.2982 26.0565 25.5665 25.9399 25.7882C25.8232 26.0098 25.6701 26.1936 25.4805 26.3394C25.2909 26.4852 25.0882 26.6019 24.8724 26.6894L26.688 29.52H25.5024L23.958 26.9563H22.9299V29.52H21.8799V23.1238H23.678ZM23.608 23.9988H22.9299V26.09H23.6561C24.1432 26.09 24.4961 25.9996 24.7149 25.8188C24.9365 25.6379 25.0474 25.3711 25.0474 25.0182C25.0474 24.6477 24.9293 24.3852 24.693 24.2307C24.4597 24.0761 24.098 23.9988 23.608 23.9988Z" fill="white"/>
<path d="M29.9824 24.585C30.557 24.585 31.0178 24.795 31.3649 25.215C31.7149 25.635 31.8899 26.2592 31.8899 27.0875C31.8899 27.6359 31.8082 28.0982 31.6449 28.4744C31.4845 28.8477 31.2584 29.1307 30.9668 29.3232C30.678 29.5127 30.3411 29.6075 29.9561 29.6075C29.7111 29.6075 29.4982 29.5754 29.3174 29.5113C29.1365 29.4471 28.982 29.364 28.8536 29.2619C28.7253 29.1569 28.6174 29.0432 28.5299 28.9207H28.4686C28.4832 29.0373 28.4963 29.1671 28.508 29.31C28.5226 29.45 28.5299 29.5784 28.5299 29.695V31.6682H27.4974V24.6769H28.3374L28.4818 25.3463H28.5299C28.6203 25.2092 28.7297 25.0823 28.858 24.9657C28.9893 24.849 29.1468 24.7571 29.3305 24.69C29.5172 24.62 29.7345 24.585 29.9824 24.585ZM29.7068 25.425C29.4238 25.425 29.1963 25.4819 29.0243 25.5957C28.8551 25.7065 28.7311 25.8742 28.6524 26.0988C28.5765 26.3234 28.5357 26.6048 28.5299 26.9432V27.0875C28.5299 27.4463 28.5663 27.7511 28.6393 28.0019C28.7151 28.2498 28.839 28.4394 29.0111 28.5707C29.1861 28.699 29.4224 28.7632 29.7199 28.7632C29.9707 28.7632 30.1778 28.6946 30.3411 28.5575C30.5074 28.4204 30.6313 28.225 30.713 27.9713C30.7947 27.7175 30.8355 27.4186 30.8355 27.0744C30.8355 26.5523 30.7422 26.1469 30.5555 25.8582C30.3718 25.5694 30.0888 25.425 29.7068 25.425Z" fill="white"/>
<path d="M5.50039 3.19995C4.34059 3.19995 3.40039 4.14015 3.40039 5.29995V22.1C3.40039 23.2598 4.34059 24.2 5.50039 24.2H14.0746C14.1959 23.4772 14.3786 22.7754 14.6174 22.1H9.70039C9.70039 19.7804 7.81999 17.9 5.50039 17.9V9.49995C7.81999 9.49995 9.70039 7.61955 9.70039 5.29995H30.7004C30.7004 7.61955 32.5808 9.49995 34.9004 9.49995V16.9083C35.6986 17.6227 36.4052 18.4374 37.0004 19.3326V5.29995C37.0004 4.14015 36.0602 3.19995 34.9004 3.19995H5.50039Z" fill="white"/>
<path d="M24.3968 13.8748C24.3992 13.8168 24.4004 13.7585 24.4004 13.7C24.4004 11.3804 22.52 9.49995 20.2004 9.49995C17.8808 9.49995 16.0004 11.3804 16.0004 13.7C16.0004 15.1374 16.7225 16.4062 17.8238 17.1634C19.6016 15.4745 21.8718 14.2991 24.3968 13.8748Z" fill="white"/>
</svg>
