<svg width="40" height="40" viewBox="0 0 40 40" fill="none" xmlns="http://www.w3.org/2000/svg">
<path d="M35 16.5626H33.4016C33.1535 13.1778 31.6339 10.0123 29.1479 7.70183C26.662 5.39138 23.3938 4.10718 20 4.10718C16.6062 4.10718 13.338 5.39138 10.8521 7.70183C8.36611 10.0123 6.84648 13.1778 6.59844 16.5626H5C4.75136 16.5626 4.5129 16.6613 4.33709 16.8372C4.16127 17.013 4.0625 17.2514 4.0625 17.5001C4.06808 20.4477 4.8882 23.3365 6.43231 25.8473C7.97642 28.3581 10.1844 30.3933 12.8125 31.7282V32.5001C12.8125 33.0802 13.043 33.6366 13.4532 34.0469C13.8634 34.4571 14.4198 34.6876 15 34.6876H25C25.5802 34.6876 26.1366 34.4571 26.5468 34.0469C26.957 33.6366 27.1875 33.0802 27.1875 32.5001V31.7282C29.8156 30.3933 32.0236 28.3581 33.5677 25.8473C35.1118 23.3365 35.9319 20.4477 35.9375 17.5001C35.9375 17.2514 35.8387 17.013 35.6629 16.8372C35.4871 16.6613 35.2486 16.5626 35 16.5626ZM27.225 8.48289C27.6787 8.84615 28.1044 9.24311 28.4984 9.67038C26.7582 10.2121 25.1466 11.1026 23.7618 12.2876C22.377 13.4725 21.248 14.9271 20.4437 16.5626H15.2094C15.9477 14.211 17.416 12.1557 19.4011 10.6948C21.3863 9.23385 23.7852 8.44324 26.25 8.43757C26.575 8.43757 26.9016 8.45476 27.225 8.48289ZM29.7344 11.2719C30.7564 12.8616 31.3704 14.6788 31.5219 16.5626H22.575C23.3589 15.2508 24.3954 14.1078 25.6243 13.1996C26.8533 12.2914 28.2503 11.6362 29.7344 11.2719ZM20 5.93757C21.4323 5.93531 22.8524 6.20026 24.1875 6.71882C21.6087 7.1259 19.2034 8.27269 17.2636 10.02C15.3238 11.7674 13.9328 14.0401 13.2594 16.5626H8.47812C8.71673 13.6695 10.0335 10.9717 12.1676 9.00373C14.3016 7.03582 17.0971 5.94146 20 5.93757ZM25.8594 30.2876C25.6961 30.3624 25.5577 30.4826 25.4607 30.6339C25.3638 30.7851 25.3123 30.961 25.3125 31.1407V32.5001C25.3125 32.583 25.2796 32.6624 25.221 32.721C25.1624 32.7796 25.0829 32.8126 25 32.8126H15C14.9171 32.8126 14.8376 32.7796 14.779 32.721C14.7204 32.6624 14.6875 32.583 14.6875 32.5001V31.1407C14.6877 30.961 14.6362 30.7851 14.5393 30.6339C14.4423 30.4826 14.3039 30.3624 14.1406 30.2876C11.8408 29.227 9.86867 27.5672 8.4309 25.4823C6.99314 23.3975 6.1427 20.9642 5.96875 18.4376H34.0312C33.8573 20.9642 33.0069 23.3975 31.5691 25.4823C30.1313 27.5672 28.1592 29.227 25.8594 30.2876Z" fill="white"/>
</svg>
