<svg width="33" height="40" viewBox="0 0 33 40" fill="none" xmlns="http://www.w3.org/2000/svg">
<path d="M4.59961 6H20.5996C21.13 6 21.6387 6.21071 22.0138 6.58579C22.3889 6.96086 22.5996 7.46957 22.5996 8V18.044C23.2876 18.1067 23.9543 18.23 24.5996 18.414V8C24.5996 6.93913 24.1782 5.92172 23.428 5.17157C22.6779 4.42143 21.6605 4 20.5996 4H4.59961C3.53874 4 2.52133 4.42143 1.77118 5.17157C1.02104 5.92172 0.599609 6.93913 0.599609 8V32C0.599609 33.0609 1.02104 34.0783 1.77118 34.8284C2.52133 35.5786 3.53874 36 4.59961 36H13.1136C12.6042 35.3831 12.1636 34.7125 11.7996 34H4.59961C4.06918 34 3.56047 33.7893 3.1854 33.4142C2.81032 33.0391 2.59961 32.5304 2.59961 32H11.0136C10.8288 31.3462 10.7049 30.6767 10.6436 30H2.59961V8C2.59961 7.46957 2.81032 6.96086 3.1854 6.58579C3.56047 6.21071 4.06918 6 4.59961 6ZM6.59961 8C6.06918 8 5.56047 8.21071 5.1854 8.58579C4.81032 8.96086 4.59961 9.46957 4.59961 10V12C4.59961 12.5304 4.81032 13.0391 5.1854 13.4142C5.56047 13.7893 6.06918 14 6.59961 14H18.5996C19.13 14 19.6387 13.7893 20.0138 13.4142C20.3889 13.0391 20.5996 12.5304 20.5996 12V10C20.5996 9.46957 20.3889 8.96086 20.0138 8.58579C19.6387 8.21071 19.13 8 18.5996 8H6.59961ZM18.5996 10V12H6.59961V10H18.5996ZM30.5996 29C30.5996 31.3869 29.6514 33.6761 27.9636 35.364C26.2757 37.0518 23.9866 38 21.5996 38C19.2127 38 16.9235 37.0518 15.2356 35.364C13.5478 33.6761 12.5996 31.3869 12.5996 29C12.5996 26.6131 13.5478 24.3239 15.2356 22.636C16.9235 20.9482 19.2127 20 21.5996 20C23.9866 20 26.2757 20.9482 27.9636 22.636C29.6514 24.3239 30.5996 26.6131 30.5996 29ZM20.6396 25.068C20.5101 24.9786 20.3594 24.9247 20.2025 24.9117C20.0456 24.8987 19.8881 24.9271 19.7456 24.994C19.6295 25.0456 19.5243 25.119 19.4356 25.21C19.3424 25.3039 19.2688 25.4154 19.2191 25.5379C19.1693 25.6605 19.1443 25.7917 19.1456 25.924V32.074C19.1441 32.2066 19.1689 32.3382 19.2187 32.4611C19.2685 32.5841 19.3422 32.6958 19.4356 32.79C19.5278 32.8797 19.6338 32.954 19.7496 33.01C19.9525 33.103 20.1828 33.1172 20.3956 33.05C20.488 33.0202 20.5756 32.9771 20.6556 32.922L25.2476 29.788C25.3873 29.6959 25.4998 29.5681 25.5736 29.418C25.649 29.2665 25.6877 29.0995 25.6866 28.9303C25.6856 28.7611 25.6448 28.5945 25.5676 28.444C25.4885 28.2966 25.3736 28.1715 25.2336 28.08L20.6396 25.068Z" fill="white"/>
</svg>
