<svg width="41" height="40" viewBox="0 0 41 40" fill="none" xmlns="http://www.w3.org/2000/svg">
<path d="M8.85059 5.28003C8.27069 5.28003 7.80059 5.74804 7.80059 6.32536V13.6427H6.75059C5.01089 13.6427 3.60059 15.0467 3.60059 16.7787V31.4134C3.60059 32.7788 4.47713 33.9404 5.70059 34.3709V35.072C5.70059 35.938 6.40574 36.64 7.27559 36.64C8.14543 36.64 8.85059 35.938 8.85059 35.072V34.5494H12.0006V32.4587H6.75059C6.17069 32.4587 5.70059 31.9907 5.70059 31.4134V16.7787C5.70059 16.2014 6.17069 15.7334 6.75059 15.7334H17.2506C17.8305 15.7334 18.3006 16.2014 18.3006 16.7787V17.824H20.4006V16.7787C20.4006 15.0467 18.9903 13.6427 17.2506 13.6427H16.2006V6.32536C16.2006 5.74804 15.7305 5.28003 15.1506 5.28003H8.85059ZM14.1006 13.6427H9.90059V7.3707H14.1006V13.6427Z" fill="white"/>
<path d="M9.90059 18.8694C9.90059 18.292 9.43048 17.824 8.85059 17.824C8.27069 17.824 7.80059 18.292 7.80059 18.8694V29.3227C7.80059 29.9 8.27069 30.368 8.85059 30.368C9.43048 30.368 9.90059 29.9 9.90059 29.3227V18.8694Z" fill="white"/>
<path d="M26.7006 15.7334C28.4403 15.7334 29.8506 17.1374 29.8506 18.8694V19.9147H34.0506C35.7903 19.9147 37.2006 21.3188 37.2006 23.0507V33.5041C37.2006 35.236 35.7903 36.64 34.0506 36.6401L17.2506 36.6401C15.5109 36.6401 14.1006 35.236 14.1006 33.5041V23.0507C14.1006 21.3188 15.5109 19.9147 17.2506 19.9147H21.4506V18.8694C21.4506 17.1374 22.8609 15.7334 24.6006 15.7334H26.7006ZM23.5506 18.8694V19.9147H27.7506V18.8694C27.7506 18.2921 27.2805 17.8241 26.7006 17.8241H24.6006C24.0207 17.8241 23.5506 18.2921 23.5506 18.8694ZM16.2006 23.0507V33.5041C16.2006 34.0814 16.6707 34.5494 17.2506 34.5494L18.3006 34.5494V22.0054H17.2506C16.6707 22.0054 16.2006 22.4734 16.2006 23.0507ZM30.9006 34.5494V22.0054H20.4006V34.5494L30.9006 34.5494ZM34.0506 34.5494C34.6305 34.5494 35.1006 34.0814 35.1006 33.5041V23.0507C35.1006 22.4734 34.6305 22.0054 34.0506 22.0054H33.0006V34.5494L34.0506 34.5494Z" fill="white"/>
</svg>
