<svg width="41" height="40" viewBox="0 0 41 40" fill="none" xmlns="http://www.w3.org/2000/svg">
<path d="M27.0336 11.2064C27.8223 11.4061 28.5331 11.6592 29.0738 11.9787C29.5532 12.2621 30.2496 12.8097 30.2496 13.7001C30.2496 13.7967 30.2414 13.8894 30.2261 13.9781L28.2075 33.0206C28.1334 33.7239 27.8088 34.4844 27.106 34.974C26.0815 35.6877 23.9693 36.8 20.7854 36.8C17.6015 36.8 15.4893 35.6877 14.4648 34.974C13.762 34.4844 13.4374 33.7239 13.3633 33.0206L11.3731 13.9781C11.3578 13.8894 11.3496 13.7967 11.3496 13.7001C11.3496 12.8097 12.046 12.2621 12.5255 11.9787C13.0752 11.6538 13.8007 11.3976 14.6052 11.1965C16.2305 10.7902 18.42 10.55 20.7996 10.55C22.2955 10.55 23.7163 10.6449 24.9691 10.8164L27.0336 11.2064ZM24.5118 12.874C23.4128 12.7323 22.1508 12.65 20.7996 12.65C18.54 12.65 16.5296 12.88 15.1146 13.2338C14.5135 13.3841 14.0612 13.5466 13.7538 13.7001C14.0612 13.8535 14.5135 14.016 15.1146 14.1663C16.5296 14.5201 18.54 14.7501 20.7996 14.7501C21.9987 14.7501 23.1276 14.6853 24.1345 14.5716L24.5118 12.874ZM25.1249 16.5619C23.8347 16.7471 22.3579 16.85 20.7996 16.85C18.42 16.85 16.2305 16.6099 14.6053 16.2036C14.286 16.1238 13.9792 16.0353 13.6909 15.9373L15.4518 32.8007C15.4785 33.0542 15.5786 33.1906 15.6652 33.2509C16.4157 33.7738 18.1171 34.7 20.7854 34.7C23.4537 34.7 25.1551 33.7738 25.9056 33.2509C25.9922 33.1906 26.0923 33.0542 26.119 32.8007L27.9083 15.9373C27.62 16.0353 27.3132 16.1238 26.994 16.2036C26.4467 16.3404 25.8355 16.4584 25.1746 16.5547C25.1581 16.5575 25.1415 16.5599 25.1249 16.5619ZM13.3813 13.457C13.3813 13.457 13.3859 13.4611 13.3918 13.4696C13.3837 13.4613 13.3813 13.457 13.3813 13.457ZM28.2179 13.457C28.2179 13.457 28.2156 13.4613 28.2075 13.4696C28.2133 13.4611 28.2179 13.457 28.2179 13.457ZM27.8454 13.7001C27.5541 13.5547 27.1327 13.401 26.5778 13.2575L26.3696 14.1945C26.4084 14.1852 26.4467 14.1758 26.4846 14.1663C27.0858 14.016 27.538 13.8535 27.8454 13.7001Z" fill="white"/>
<path d="M33.1929 3.90226C33.4083 4.44069 33.1464 5.05175 32.608 5.26712L27.8727 7.16122L27.0338 11.2064L26.3998 14.24L24.1348 14.5716L24.9693 10.8163L25.943 6.16445C26.0183 5.82579 26.2559 5.54616 26.578 5.41732L31.828 3.31732C32.3665 3.10195 32.9775 3.36384 33.1929 3.90226Z" fill="white"/>
</svg>
