<svg width="41" height="40" viewBox="0 0 41 40" fill="none" xmlns="http://www.w3.org/2000/svg">
<path d="M24.3724 6.02104C23.2637 2.25959 17.9359 2.25959 16.8272 6.02104L16.6301 6.68972C16.3 7.80985 15.0205 8.33981 13.995 7.78121L13.3829 7.44775C9.93915 5.57195 6.17181 9.3393 8.0476 12.783L8.38106 13.3952C8.93966 14.4207 8.40971 15.7001 7.28957 16.0303L6.62089 16.2274C2.85944 17.336 2.85944 22.6639 6.62089 23.7725L7.28957 23.9696C8.40971 24.2998 8.93966 25.5792 8.38106 26.6047L8.0476 27.2169C6.17181 30.6606 9.93914 34.428 13.3828 32.5522L13.995 32.2187C15.0205 31.6601 16.3 32.19 16.6301 33.3102L16.8272 33.9789C17.9359 37.7403 23.2637 37.7403 24.3724 33.9789L24.5695 33.3102C24.8996 32.19 26.1791 31.6601 27.2046 32.2187L27.8168 32.5522C31.2605 34.428 35.0278 30.6606 33.152 27.2169L32.8185 26.6047C32.2599 25.5792 32.7899 24.2998 33.91 23.9696L34.5787 23.7725C38.3402 22.6639 38.3402 17.336 34.5787 16.2274L33.91 16.0303C32.7899 15.7001 32.2599 14.4207 32.8185 13.3952L33.152 12.783C35.0278 9.33928 31.2604 5.57196 27.8168 7.44775L27.2046 7.78121C26.1791 8.33981 24.8996 7.80986 24.5695 6.68972L24.3724 6.02104ZM18.8415 6.61476C19.3583 4.86168 21.8414 4.86168 22.3581 6.61476L22.5552 7.28343C23.2636 9.68684 26.0087 10.8239 28.2091 9.62537L28.8213 9.29192C30.4263 8.41767 32.1821 10.1735 31.3078 11.7785L30.9744 12.3907C29.7758 14.591 30.9129 17.3362 33.3163 18.0446L33.985 18.2417C35.7381 18.7584 35.7381 21.2415 33.985 21.7582L33.3163 21.9553C30.9129 22.6637 29.7758 25.4089 30.9744 27.6092L31.3078 28.2214C32.1821 29.8264 30.4263 31.5822 28.8213 30.708L28.2091 30.3745C26.0087 29.176 23.2636 30.3131 22.5552 32.7165L22.3581 33.3851C21.8414 35.1382 19.3583 35.1382 18.8415 33.3851L18.6444 32.7165C17.936 30.3131 15.1909 29.176 12.9905 30.3745L12.3783 30.708C10.7733 31.5822 9.01753 29.8264 9.89177 28.2214L10.2252 27.6092C11.4238 25.4089 10.2867 22.6637 7.88329 21.9553L7.21461 21.7582C5.46154 21.2415 5.46154 18.7584 7.21461 18.2417L7.88329 18.0446C10.2867 17.3362 11.4238 14.591 10.2252 12.3907L9.89177 11.7785C9.01753 10.1735 10.7733 8.41768 12.3783 9.29191L12.9905 9.62537C15.1909 10.8239 17.936 9.68684 18.6444 7.28343L18.8415 6.61476Z" fill="white"/>
<path d="M25.2405 19.92C25.2405 21.4198 24.5418 22.7564 23.452 23.6219L22.0905 20.445L25.1975 19.2799C25.2259 19.4892 25.2405 19.7029 25.2405 19.92Z" fill="white"/>
<path d="M28.9191 19.92C28.9191 24.5592 25.1583 28.32 20.5191 28.32C19.0296 28.32 17.6307 27.9323 16.4177 27.2524C16.332 27.2043 16.2472 27.1548 16.1634 27.1039C14.9236 26.3506 13.8942 25.2852 13.1842 24.0169C12.5059 22.805 12.1191 21.4077 12.1191 19.92C12.1191 15.2808 15.8799 11.52 20.5191 11.52C25.1583 11.52 28.9191 15.2808 28.9191 19.92ZM27.8691 19.92C27.8691 15.8607 24.5784 12.57 20.5191 12.57C16.4598 12.57 13.1691 15.8607 13.1691 19.92C13.1691 21.1513 13.4719 22.3118 14.007 23.3313L16.0947 21.5915C15.8981 21.0719 15.7905 20.5085 15.7905 19.92C15.7905 17.3105 17.906 15.195 20.5155 15.195C21.8993 15.195 23.1442 15.7899 24.0083 16.7379L19.9905 18.345L21.0405 20.97L22.4404 24.2364C21.8525 24.499 21.201 24.645 20.5155 24.645C19.927 24.645 19.3636 24.5374 18.844 24.3408L17.1033 26.4297C18.1238 26.9664 19.286 27.27 20.5191 27.27C24.5784 27.27 27.8691 23.9793 27.8691 19.92ZM19.1589 20.0656C19.2211 19.9723 19.2172 19.8498 19.1491 19.7607C19.081 19.6716 18.9639 19.6355 18.8575 19.671L17.2825 20.196L17.4485 20.694L18.2977 20.411L17.6721 21.3494C17.6099 21.4427 17.6138 21.5652 17.6819 21.6544C17.75 21.7435 17.8671 21.7795 17.9735 21.744L18.8227 21.461L18.1971 22.3994C18.1349 22.4927 18.1388 22.6152 18.2069 22.7044C18.275 22.7935 18.3921 22.8295 18.4985 22.794L20.0735 22.269L19.9075 21.771L19.0583 22.0541L19.6839 21.1156C19.7461 21.0223 19.7422 20.8998 19.6741 20.8107C19.606 20.7216 19.4889 20.6855 19.3825 20.721L18.5333 21.0041L19.1589 20.0656Z" fill="white"/>
</svg>
